<?xml version="1.0" encoding="UTF-8" standalone="no"?>
<!-- Created with Inkscape (http://www.inkscape.org/) -->

<svg
   width="68.262497mm"
   height="68.262497mm"
   viewBox="0 0 68.262497 68.262497"
   version="1.1"
   id="svg5"
   xml:space="preserve"
   xmlns:inkscape="http://www.inkscape.org/namespaces/inkscape"
   xmlns:sodipodi="http://sodipodi.sourceforge.net/DTD/sodipodi-0.dtd"
   xmlns="http://www.w3.org/2000/svg"
   xmlns:svg="http://www.w3.org/2000/svg"><sodipodi:namedview
     id="namedview7"
     pagecolor="#ffffff"
     bordercolor="#000000"
     borderopacity="0.25"
     inkscape:showpageshadow="2"
     inkscape:pageopacity="0.0"
     inkscape:pagecheckerboard="0"
     inkscape:deskcolor="#d1d1d1"
     inkscape:document-units="mm"
     showgrid="false" /><defs
     id="defs2" /><g
     inkscape:label="Capa 1"
     inkscape:groupmode="layer"
     id="layer1"
     transform="translate(-19.526019,-180.69285)"><g
       id="g595"
       transform="matrix(0.26458333,0,0,0.26458333,-19.103145,152.64701)"
       inkscape:export-filename="Comparte D222222U22OC.png"
       inkscape:export-xdpi="96"
       inkscape:export-ydpi="96"><g
         fill="#f6b21c"
         fill-rule="none"
         stroke="none"
         stroke-width="1"
         stroke-linecap="butt"
         stroke-linejoin="miter"
         stroke-miterlimit="10"
         stroke-dasharray="none"
         stroke-dashoffset="0"
         font-family="none"
         font-weight="none"
         font-size="none"
         text-anchor="none"
         style="mix-blend-mode:normal"
         id="g463"><circle
           style="mix-blend-mode:normal;fill:#04243c;fill-opacity:1;fill-rule:evenodd;stroke-width:1.08847"
           id="path649-7"
           cx="274.55234"
           cy="234.73114"
           inkscape:export-filename="compart222e.svg"
           inkscape:export-xdpi="96"
           inkscape:export-ydpi="96"
           r="128.50394" /><g
           data-paper-data="{&quot;isGlobalGroup&quot;:true,&quot;bounds&quot;:{&quot;x&quot;:146,&quot;y&quot;:106,&quot;width&quot;:258,&quot;height&quot;:258}}"
           id="g461"><g
             data-paper-data="{&quot;stacked&quot;:true,&quot;isPrimaryText&quot;:true}"
             fill-rule="nonzero"
             id="element-id-49792"><path
               d="m 221.36637,273.92043 c 0.0842,0 0.16836,0.0158 0.25253,0.0473 0.0842,0.0316 0.16485,0.0859 0.24201,0.16309 l 1.40998,1.48364 c -0.61731,0.80671 -1.39069,1.41524 -2.32016,1.82561 -0.92947,0.41037 -2.02904,0.61555 -3.29873,0.61555 -1.16446,0 -2.20792,-0.19817 -3.13037,-0.59451 -0.92245,-0.39634 -1.7046,-0.9435 -2.34646,-1.64147 -0.64186,-0.69798 -1.13465,-1.52573 -1.47838,-2.48325 -0.34373,-0.95752 -0.51559,-1.99747 -0.51559,-3.11985 0,-1.14342 0.19642,-2.19389 0.58925,-3.15141 0.39283,-0.95752 0.94174,-1.78352 1.64673,-2.47799 0.70499,-0.69447 1.54852,-1.23461 2.5306,-1.62043 0.98208,-0.38582 2.06587,-0.57872 3.25138,-0.57872 0.57522,0 1.11711,0.0509 1.62569,0.15257 0.50858,0.10172 0.98383,0.24201 1.42576,0.42089 0.44193,0.17888 0.84879,0.39283 1.22058,0.64186 0.37179,0.24903 0.70148,0.52436 0.98909,0.826 l -1.19954,1.6099 c -0.0772,0.0982 -0.16836,0.18765 -0.27358,0.26832 -0.10522,0.0807 -0.25253,0.12101 -0.44193,0.12101 -0.12627,0 -0.24552,-0.0281 -0.35776,-0.0842 -0.11224,-0.0561 -0.23149,-0.12451 -0.35776,-0.20518 -0.12627,-0.0807 -0.26481,-0.16836 -0.41563,-0.26306 -0.15082,-0.0947 -0.3297,-0.18239 -0.53663,-0.26306 -0.20694,-0.0807 -0.44895,-0.14907 -0.72604,-0.20518 -0.27709,-0.0561 -0.60152,-0.0842 -0.97331,-0.0842 -0.64536,0 -1.23461,0.11399 -1.76774,0.34197 -0.53313,0.22798 -0.99085,0.55417 -1.37315,0.97857 -0.38231,0.4244 -0.68044,0.93823 -0.89439,1.54151 -0.21395,0.60328 -0.32093,1.28021 -0.32093,2.03079 0,0.78566 0.10698,1.48364 0.32093,2.09393 0.21395,0.61029 0.50507,1.12413 0.87335,1.54151 0.36828,0.41738 0.79794,0.7348 1.28898,0.95226 0.49104,0.21746 1.01715,0.32619 1.57834,0.32619 0.32268,0 0.61731,-0.0158 0.88387,-0.0473 0.26656,-0.0316 0.51384,-0.0859 0.74182,-0.16309 0.22798,-0.0772 0.44544,-0.17712 0.65238,-0.29988 0.20694,-0.12276 0.41563,-0.27533 0.62607,-0.45772 0.0842,-0.0702 0.17537,-0.12802 0.27358,-0.17362 0.0982,-0.0456 0.19992,-0.0684 0.30515,-0.0684 z"
               data-paper-data="{&quot;glyphName&quot;:&quot;C&quot;,&quot;glyphIndex&quot;:0,&quot;firstGlyphOfWord&quot;:true,&quot;word&quot;:1,&quot;line&quot;:1,&quot;firstGlyphOfFirstLine&quot;:true}"
               fill="#f6b21c"
               id="element-id-94504" /><path
               d="m 242.21446,270.2166 c 0,1.10834 -0.19115,2.13952 -0.57346,3.09354 -0.38231,0.95402 -0.9207,1.78352 -1.61517,2.48851 -0.69447,0.70499 -1.53099,1.25741 -2.50956,1.65725 -0.97857,0.39985 -2.06411,0.59977 -3.25664,0.59977 -1.19252,0 -2.27982,-0.19992 -3.2619,-0.59977 -0.98208,-0.39985 -1.8221,-0.95226 -2.52008,-1.65725 -0.69798,-0.70499 -1.23812,-1.53449 -1.62043,-2.48851 -0.38231,-0.95402 -0.57346,-1.9852 -0.57346,-3.09354 0,-1.10834 0.19115,-2.13952 0.57346,-3.09354 0.38231,-0.95402 0.92245,-1.78177 1.62043,-2.48325 0.69798,-0.70148 1.538,-1.25215 2.52008,-1.65199 0.98208,-0.39985 2.06938,-0.59977 3.2619,-0.59977 1.19252,0 2.27807,0.20168 3.25664,0.60503 0.97857,0.40335 1.81509,0.95577 2.50956,1.65725 0.69447,0.70148 1.23286,1.52923 1.61517,2.48325 0.38231,0.95402 0.57346,1.98169 0.57346,3.08302 z m -3.6407,0 c 0,-0.7576 -0.0982,-1.43979 -0.29462,-2.04658 -0.19642,-0.60678 -0.47876,-1.12062 -0.84704,-1.54151 -0.36828,-0.42089 -0.81898,-0.74357 -1.35211,-0.96805 -0.53313,-0.22447 -1.13991,-0.33671 -1.82035,-0.33671 -0.68745,0 -1.2995,0.11224 -1.83613,0.33671 -0.53663,0.22447 -0.98909,0.54716 -1.35737,0.96805 -0.36828,0.42089 -0.65063,0.93473 -0.84704,1.54151 -0.19642,0.60678 -0.29462,1.28898 -0.29462,2.04658 0,0.76462 0.0982,1.45032 0.29462,2.0571 0.19642,0.60678 0.47876,1.12062 0.84704,1.54151 0.36828,0.42089 0.82074,0.74182 1.35737,0.96279 0.53663,0.22097 1.14868,0.33145 1.83613,0.33145 0.68044,0 1.28722,-0.11048 1.82035,-0.33145 0.53313,-0.22097 0.98383,-0.5419 1.35211,-0.96279 0.36828,-0.42089 0.65063,-0.93473 0.84704,-1.54151 0.19642,-0.60678 0.29462,-1.29248 0.29462,-2.0571 z"
               data-paper-data="{&quot;glyphName&quot;:&quot;O&quot;,&quot;glyphIndex&quot;:1,&quot;word&quot;:1,&quot;line&quot;:1}"
               fill="#f6b21c"
               id="element-id-41035" /><path
               d="m 253.95027,270.8795 c 0.1403,0.26656 0.27533,0.54365 0.40511,0.83126 0.12977,0.28761 0.25429,0.58223 0.37354,0.88387 0.11925,-0.30865 0.24552,-0.60854 0.3788,-0.89965 0.13328,-0.29112 0.27007,-0.57346 0.41037,-0.84704 l 3.93532,-7.74438 c 0.0701,-0.13328 0.14205,-0.23675 0.21571,-0.31041 0.0737,-0.0737 0.15608,-0.12802 0.24727,-0.16309 0.0912,-0.0351 0.19466,-0.0561 0.31041,-0.0631 0.11574,-0.007 0.25078,-0.0105 0.40511,-0.0105 h 2.71474 v 15.33092 h -3.13563 v -8.81765 c 0,-0.4279 0.021,-0.89088 0.0631,-1.38894 l -4.06159,7.88116 c -0.12627,0.24552 -0.29638,0.43141 -0.51033,0.55768 -0.21395,0.12627 -0.45772,0.1894 -0.7313,0.1894 h -0.48402 c -0.27358,0 -0.51734,-0.0631 -0.7313,-0.1894 -0.21395,-0.12627 -0.38406,-0.31216 -0.51033,-0.55768 l -4.08263,-7.89169 c 0.0281,0.24552 0.0491,0.48928 0.0631,0.7313 0.014,0.24201 0.021,0.46473 0.021,0.66816 v 8.81765 h -3.13563 V 262.5564 h 2.71474 c 0.15433,0 0.28936,0.004 0.40511,0.0105 0.11574,0.007 0.21921,0.0281 0.31041,0.0631 0.0912,0.0351 0.17362,0.0894 0.24727,0.16309 0.0737,0.0737 0.14556,0.17712 0.21571,0.31041 z"
               data-paper-data="{&quot;glyphName&quot;:&quot;M&quot;,&quot;glyphIndex&quot;:2,&quot;word&quot;:1,&quot;line&quot;:1}"
               fill="#f6b21c"
               id="element-id-12410" /><path
               d="m 271.62064,272.76299 v 5.12434 h -3.55652 v -15.33092 h 5.40844 c 1.08028,0 2.008,0.12802 2.78314,0.38406 0.77514,0.25604 1.41349,0.60854 1.91505,1.05749 0.50156,0.44895 0.87159,0.97857 1.1101,1.58886 0.2385,0.61029 0.35776,1.26968 0.35776,1.97818 0,0.76462 -0.12276,1.4661 -0.36828,2.10445 -0.24552,0.63835 -0.62081,1.18551 -1.12588,1.64147 -0.50507,0.45596 -1.14517,0.81197 -1.92031,1.06801 -0.77514,0.25604 -1.69233,0.38406 -2.75157,0.38406 z m 0,-2.68318 h 1.85192 c 0.92596,0 1.59237,-0.22097 1.99923,-0.6629 0.40686,-0.44193 0.61029,-1.05924 0.61029,-1.85192 0,-0.35074 -0.0526,-0.66992 -0.15783,-0.95752 -0.10522,-0.28761 -0.26481,-0.53488 -0.47876,-0.74182 -0.21395,-0.20694 -0.48402,-0.36653 -0.81021,-0.47876 -0.32619,-0.11224 -0.71376,-0.16836 -1.16271,-0.16836 h -1.85192 z"
               data-paper-data="{&quot;glyphName&quot;:&quot;P&quot;,&quot;glyphIndex&quot;:3,&quot;word&quot;:1,&quot;line&quot;:1}"
               fill="#f6b21c"
               id="element-id-41742" /><path
               d="m 296.16203,277.88732 h -2.75683 c -0.30865,0 -0.56294,-0.0719 -0.76286,-0.21571 -0.19992,-0.1438 -0.33847,-0.32794 -0.41563,-0.55242 l -0.90491,-2.67265 h -5.82933 l -0.90491,2.67265 c -0.0702,0.19642 -0.20694,0.37354 -0.41037,0.53137 -0.20343,0.15783 -0.45246,0.23675 -0.74708,0.23675 h -2.77787 l 5.93455,-15.33092 h 3.6407 z m -9.84883,-5.86089 h 4.18786 l -1.40998,-4.19838 c -0.0912,-0.26656 -0.19817,-0.58048 -0.32093,-0.94174 -0.12276,-0.36126 -0.24377,-0.75234 -0.36302,-1.17323 -0.11224,0.4279 -0.22798,0.82424 -0.34723,1.18901 -0.11925,0.36477 -0.23149,0.68044 -0.33671,0.947 z"
               data-paper-data="{&quot;glyphName&quot;:&quot;A&quot;,&quot;glyphIndex&quot;:4,&quot;word&quot;:1,&quot;line&quot;:1}"
               fill="#f6b21c"
               id="element-id-38589" /><path
               d="m 303.15231,272.21583 v 5.67149 h -3.55652 V 262.5564 h 4.98755 c 1.10834,0 2.05359,0.11399 2.83575,0.34197 0.78215,0.22798 1.4205,0.5454 1.91505,0.95226 0.49455,0.40686 0.85406,0.88738 1.07853,1.44155 0.22447,0.55417 0.33671,1.15745 0.33671,1.80983 0,0.49805 -0.0666,0.96805 -0.19992,1.40998 -0.13328,0.44193 -0.33145,0.85055 -0.59451,1.22584 -0.26306,0.37529 -0.58574,0.71025 -0.96805,1.00487 -0.38231,0.29462 -0.82249,0.53663 -1.32054,0.72604 0.2385,0.11925 0.46123,0.26656 0.66816,0.44193 0.20694,0.17537 0.38757,0.38932 0.5419,0.64186 l 3.2619,5.33478 h -3.21981 c -0.59626,0 -1.02417,-0.22447 -1.28371,-0.67342 l -2.54638,-4.45091 c -0.11224,-0.19642 -0.24377,-0.33671 -0.39458,-0.42089 -0.15082,-0.0842 -0.36302,-0.12627 -0.6366,-0.12627 z m 0,-2.45168 h 1.43103 c 0.48402,0 0.89614,-0.0614 1.23636,-0.18414 0.34022,-0.12276 0.61906,-0.29287 0.83652,-0.51033 0.21746,-0.21746 0.37529,-0.47175 0.4735,-0.76286 0.0982,-0.29112 0.14731,-0.60503 0.14731,-0.94174 0,-0.67342 -0.21921,-1.19954 -0.65764,-1.57834 -0.43843,-0.3788 -1.11711,-0.5682 -2.03606,-0.5682 h -1.43103 z"
               data-paper-data="{&quot;glyphName&quot;:&quot;R&quot;,&quot;glyphIndex&quot;:5,&quot;word&quot;:1,&quot;line&quot;:1}"
               fill="#f6b21c"
               id="element-id-45063" /><path
               d="m 326.28372,262.55641 v 2.81996 h -4.31412 v 12.51095 h -3.55652 v -12.51095 h -4.31412 v -2.81996 z"
               data-paper-data="{&quot;glyphName&quot;:&quot;T&quot;,&quot;glyphIndex&quot;:6,&quot;word&quot;:1,&quot;line&quot;:1}"
               fill="#f6b21c"
               id="element-id-66066" /><path
               d="m 339.81884,262.55641 v 2.73578 h -6.29231 v 3.57756 h 4.81919 v 2.63056 h -4.81919 v 3.65122 h 6.29231 v 2.73578 h -9.86987 v -15.33092 z"
               data-paper-data="{&quot;glyphName&quot;:&quot;E&quot;,&quot;glyphIndex&quot;:7,&quot;lastGlyphOfWord&quot;:true,&quot;word&quot;:1,&quot;line&quot;:1,&quot;lastGlyphOfFirstLine&quot;:true}"
               fill="#f6b21c"
               id="element-id-52238" /><path
               d="m 237.21718,298.67572 c 0,2.15415 -0.37152,4.14129 -1.11457,5.96141 -0.74305,1.82012 -1.78945,3.39483 -3.1392,4.72413 -1.34975,1.3293 -2.97559,2.36548 -4.87752,3.10852 -1.90192,0.74305 -4.01177,1.11457 -6.32952,1.11457 h -11.57515 v -29.79682 h 11.57515 c 2.31776,0 4.4276,0.37493 6.32952,1.12479 1.90192,0.74986 3.52776,1.78604 4.87752,3.10852 1.34975,1.32249 2.39615,2.89379 3.1392,4.71391 0.74305,1.82012 1.11457,3.80044 1.11457,5.94096 z m -7.07598,0 c 0,-1.47246 -0.19087,-2.80176 -0.57262,-3.98791 -0.38175,-1.18615 -0.93051,-2.19164 -1.64629,-3.01649 -0.71578,-0.82485 -1.59175,-1.45882 -2.62793,-1.90192 -1.03617,-0.4431 -2.2155,-0.66465 -3.53799,-0.66465 h -4.62188 v 19.1624 h 4.62188 c 1.32249,0 2.50181,-0.22155 3.53799,-0.66465 1.03617,-0.4431 1.91215,-1.07708 2.62793,-1.90192 0.71578,-0.82485 1.26454,-1.83035 1.64629,-3.01649 0.38175,-1.18615 0.57262,-2.52227 0.57262,-4.00836 z"
               data-paper-data="{&quot;glyphName&quot;:&quot;D&quot;,&quot;glyphIndex&quot;:8,&quot;firstGlyphOfWord&quot;:true,&quot;word&quot;:2,&quot;line&quot;:2,&quot;firstGlyphOfSecondLine&quot;:true}"
               fill="#f6b21c"
               id="element-id-82116" /><path
               d="m 257.18398,308.12399 c 0.9271,0 1.75536,-0.15338 2.48477,-0.46014 0.72941,-0.30676 1.34634,-0.74645 1.8508,-1.31908 0.50445,-0.57262 0.88961,-1.27136 1.15547,-2.09621 0.26586,-0.82485 0.39879,-1.76218 0.39879,-2.81199 v -17.64904 h 6.91237 v 17.64904 c 0,1.82694 -0.29654,3.5039 -0.88961,5.0309 -0.59307,1.52699 -1.44178,2.84266 -2.54612,3.947 -1.10434,1.10434 -2.44728,1.96328 -4.02881,2.5768 -1.58153,0.61352 -3.36075,0.92029 -5.33766,0.92029 -1.99054,0 -3.77658,-0.30676 -5.35811,-0.92029 -1.58153,-0.61352 -2.92446,-1.47246 -4.02881,-2.5768 -1.10434,-1.10434 -1.94964,-2.42001 -2.5359,-3.947 -0.58626,-1.52699 -0.87938,-3.20396 -0.87938,-5.0309 v -17.64904 h 6.91237 v 17.62859 c 0,1.04981 0.13293,1.98714 0.39879,2.81199 0.26586,0.82485 0.65102,1.52699 1.15547,2.10643 0.50445,0.57944 1.12139,1.02254 1.8508,1.3293 0.72941,0.30676 1.55767,0.46014 2.48477,0.46014 z"
               data-paper-data="{&quot;glyphName&quot;:&quot;U&quot;,&quot;glyphIndex&quot;:9,&quot;word&quot;:2,&quot;line&quot;:2}"
               fill="#f6b21c"
               id="element-id-23377" /><path
               d="m 308.15419,298.67572 c 0,2.15415 -0.37152,4.15833 -1.11457,6.01254 -0.74305,1.85421 -1.78945,3.46641 -3.1392,4.83661 -1.34975,1.3702 -2.97559,2.44387 -4.87752,3.221 -1.90192,0.77713 -4.01177,1.1657 -6.32952,1.1657 -2.31776,0 -4.43101,-0.38857 -6.33975,-1.1657 -1.90874,-0.77713 -3.5414,-1.8508 -4.89797,-3.221 -1.35657,-1.3702 -2.40638,-2.98241 -3.14942,-4.83661 -0.74305,-1.85421 -1.11457,-3.85838 -1.11457,-6.01254 0,-2.15415 0.37152,-4.15833 1.11457,-6.01254 0.74305,-1.85421 1.79285,-3.463 3.14942,-4.82639 1.35657,-1.36339 2.98923,-2.43365 4.89797,-3.21078 1.90874,-0.77713 4.02199,-1.1657 6.33975,-1.1657 2.31776,0 4.4276,0.39197 6.32952,1.17592 1.90192,0.78395 3.52776,1.85761 4.87752,3.221 1.34975,1.36339 2.39615,2.97218 3.1392,4.82639 0.74305,1.85421 1.11457,3.85157 1.11457,5.99208 z m -7.07598,0 c 0,-1.47246 -0.19087,-2.79835 -0.57262,-3.97768 -0.38175,-1.17933 -0.93051,-2.17801 -1.64629,-2.99604 -0.71578,-0.81803 -1.59175,-1.44519 -2.62793,-1.88147 -1.03617,-0.43628 -2.2155,-0.65443 -3.53799,-0.65443 -1.33612,0 -2.52567,0.21814 -3.56866,0.65443 -1.04299,0.43628 -1.92238,1.06344 -2.63815,1.88147 -0.71578,0.81803 -1.26454,1.81671 -1.64629,2.99604 -0.38175,1.17933 -0.57262,2.50522 -0.57262,3.97768 0,1.48609 0.19087,2.8188 0.57262,3.99813 0.38175,1.17933 0.93051,2.17801 1.64629,2.99604 0.71578,0.81803 1.59516,1.44178 2.63815,1.87125 1.04299,0.42947 2.23255,0.6442 3.56866,0.6442 1.32249,0 2.50181,-0.21473 3.53799,-0.6442 1.03617,-0.42947 1.91215,-1.05322 2.62793,-1.87125 0.71578,-0.81803 1.26454,-1.81671 1.64629,-2.99604 0.38175,-1.17933 0.57262,-2.51204 0.57262,-3.99813 z"
               data-paper-data="{&quot;glyphName&quot;:&quot;O&quot;,&quot;glyphIndex&quot;:10,&quot;word&quot;:2,&quot;line&quot;:2}"
               fill="#f6b21c"
               id="element-id-75084" /><path
               d="m 335.74914,305.8744 c 0.16361,0 0.32721,0.0307 0.49082,0.092 0.16361,0.0614 0.3204,0.16701 0.47037,0.31699 l 2.74041,2.88356 c -1.19978,1.56789 -2.70291,2.75063 -4.5094,3.54821 -1.80649,0.79758 -3.9436,1.19637 -6.41133,1.19637 -2.26322,0 -4.29126,-0.38516 -6.08411,-1.15547 -1.79285,-0.77031 -3.31303,-1.83376 -4.56053,-3.19032 -1.2475,-1.35657 -2.20528,-2.96537 -2.87334,-4.82639 -0.66806,-1.86102 -1.00209,-3.88224 -1.00209,-6.06366 0,-2.22232 0.38175,-4.26399 1.14524,-6.12501 0.7635,-1.86102 1.83035,-3.46641 3.20055,-4.81616 1.3702,-1.34975 3.00968,-2.39956 4.91842,-3.14942 1.90874,-0.74986 4.01517,-1.12479 6.3193,-1.12479 1.11798,0 2.17119,0.0989 3.15965,0.29654 0.98846,0.19769 1.91215,0.47037 2.77108,0.81803 0.85893,0.34766 1.6497,0.7635 2.37229,1.2475 0.72259,0.484 1.36339,1.01913 1.92238,1.60539 l -2.33139,3.12897 c -0.14997,0.19087 -0.32721,0.36471 -0.53172,0.5215 -0.20451,0.15679 -0.49082,0.23518 -0.85893,0.23518 -0.24541,0 -0.47719,-0.0545 -0.69533,-0.16361 -0.21814,-0.10907 -0.44992,-0.242 -0.69533,-0.39879 -0.24541,-0.15679 -0.51468,-0.32721 -0.80781,-0.51127 -0.29313,-0.18406 -0.64079,-0.35448 -1.04299,-0.51127 -0.4022,-0.15679 -0.87257,-0.28972 -1.41111,-0.39879 -0.53854,-0.10907 -1.1691,-0.16361 -1.8917,-0.16361 -1.25432,0 -2.39956,0.22155 -3.43573,0.66465 -1.03617,0.4431 -1.92578,1.07708 -2.66883,1.90192 -0.74305,0.82485 -1.32249,1.82353 -1.73832,2.99604 -0.41583,1.17251 -0.62375,2.48818 -0.62375,3.947 0,1.52699 0.20792,2.88356 0.62375,4.06971 0.41583,1.18615 0.98164,2.18483 1.69742,2.99604 0.71578,0.81122 1.55085,1.42815 2.50522,1.8508 0.95437,0.42265 1.97691,0.63397 3.06762,0.63397 0.62716,0 1.19978,-0.0307 1.71787,-0.092 0.51809,-0.0614 0.99868,-0.16701 1.44178,-0.31699 0.4431,-0.14997 0.86575,-0.34426 1.26795,-0.58285 0.4022,-0.23859 0.80781,-0.53513 1.21682,-0.88961 0.16361,-0.13634 0.34085,-0.24882 0.53172,-0.33744 0.19087,-0.0886 0.38857,-0.13293 0.59307,-0.13293 z"
               data-paper-data="{&quot;glyphName&quot;:&quot;C&quot;,&quot;glyphIndex&quot;:11,&quot;lastGlyphOfWord&quot;:true,&quot;word&quot;:2,&quot;line&quot;:2,&quot;lastGlyphOfSecondLine&quot;:true}"
               fill="#f6b21c"
               id="element-id-149" /></g><g
             data-paper-data="{&quot;fillRule&quot;:&quot;evenodd&quot;,&quot;fillRuleOriginal&quot;:&quot;evenodd&quot;,&quot;isIcon&quot;:true,&quot;iconStyle&quot;:&quot;standalone&quot;,&quot;selectedEffects&quot;:{&quot;container&quot;:&quot;&quot;,&quot;transformation&quot;:&quot;&quot;,&quot;pattern&quot;:&quot;&quot;},&quot;bounds&quot;:{&quot;x&quot;:245.30037441824584,&quot;y&quot;:156.0885022382481,&quot;width&quot;:59.399316923117226,&quot;height&quot;:90.38997039181882},&quot;iconType&quot;:&quot;icon&quot;,&quot;rawIconId&quot;:&quot;0f95f4ef-adb0-4fa7-af78-7ecbc2484501&quot;,&quot;isSvgStockIcon&quot;:true,&quot;combineTerms&quot;:&quot;light_bulb&quot;,&quot;combineTermsExtended&quot;:{&quot;icon&quot;:[&quot;light_bulb&quot;]},&quot;isDetailed&quot;:false,&quot;suitableAsStandaloneIcon&quot;:true}"
             fill-rule="evenodd"
             id="element-id-25069"
             style="fill:#ffffff"><g
               data-paper-data="{&quot;isPathIcon&quot;:true}"
               id="element-id-48721"
               style="fill:#ffffff"><path
                 d="m 262.39978,233.59294 c -1.45065,0 -2.12797,-0.66614 -2.12797,-2.10627 -0.0322,-5.68555 -1.35398,-11.10214 -3.51418,-16.32475 -1.73013,-4.17046 -3.93372,-8.093 -5.98607,-12.10169 -1.2685,-2.47189 -2.48241,-4.96483 -3.57862,-7.51234 -1.71961,-4.00869 -2.20359,-8.20019 -1.70908,-12.54162 0.55895,-4.85764 1.9879,-9.40358 4.70705,-13.48789 4.75045,-7.1362 11.38162,-11.49933 19.81788,-12.9822 13.12227,-2.31078 26.12617,4.49202 31.79002,16.5286 2.19242,4.65379 3.08477,9.59757 2.86974,14.71299 -0.12889,3.2564 -1.07516,6.35169 -2.47189,9.26417 -1.83797,3.84758 -3.82588,7.61953 -5.77169,11.41319 -2.13849,4.15928 -4.08365,8.4047 -5.28705,12.95064 -0.88117,3.31032 -1.37568,6.66339 -1.38686,10.09142 -0.0105,1.44013 -0.68784,2.10627 -2.12797,2.10627 -4.22306,-0.0105 -8.44678,-0.0105 -12.65998,-0.0105 z m 16.19586,-29.36088 c 0,-0.24857 -0.002,-0.49385 -0.003,-0.73519 v -0.007 c -0.004,-0.59315 -0.009,-1.17052 0.0145,-1.74131 0.021,-0.75229 0.37614,-1.34346 1.08503,-1.63346 0.68784,-0.29 1.33294,-0.16111 1.8919,0.32222 0.48333,0.43007 0.58,0.99954 0.58,1.61242 -0.007,5.48038 -0.005,10.96142 -0.003,16.44246 l 6.6e-4,1.65582 c 6.6e-4,3.01638 0.002,6.0321 0.002,9.04914 0,0.0474 0.001,0.0921 0.002,0.13809 l 6.6e-4,0.025 c 0.002,0.0815 0.004,0.16177 -0.003,0.24528 -0.0427,0.33274 0.0967,0.44059 0.43007,0.44059 0.63589,-0.0164 1.2731,-0.0145 1.90965,-0.0118 0.21306,0 0.42481,6.6e-4 0.63721,6.6e-4 h 1.05346 c 0.021,-0.19333 0.0322,-0.3117 0.0427,-0.42941 0.19333,-3.36425 0.75229,-6.66339 1.67686,-9.89809 1.39673,-4.87934 3.5681,-9.42528 5.8894,-13.90678 1.83732,-3.54706 3.66477,-7.10398 5.38437,-10.7043 1.01006,-2.12797 1.66568,-4.39601 1.89124,-6.77058 0.24726,-2.59026 0,-5.13712 -0.50503,-7.68463 -2.20294,-11.21985 -11.37044,-19.67782 -22.71918,-20.83847 -7.1362,-0.73059 -13.57404,1.18235 -19.19448,5.63163 -5.08385,4.02973 -8.08182,9.34966 -9.26417,15.70135 -0.76281,4.10535 -0.72006,8.14626 0.75229,12.11221 1.09621,2.9447 2.54686,5.71711 3.96594,8.51189 1.92346,3.78248 3.90084,7.54391 5.67437,11.41319 2.10627,4.61039 3.42803,9.4792 3.89032,14.55188 0.0644,0.75229 0.12889,1.50457 0.19333,2.2996 0.35115,0 0.69771,-0.003 1.04229,-0.005 0.79437,-0.008 1.57428,-0.0138 2.35418,0.0158 0.53725,0.0217 0.63392,-0.14993 0.63392,-0.65562 -0.0112,-9.03796 -0.0112,-18.0654 -0.0112,-27.10401 0,-0.21503 0,-0.44059 0.0112,-0.65562 0.0533,-0.8917 0.73059,-1.59072 1.62294,-1.66568 0.8917,-0.075 1.71895,0.49451 1.84849,1.38621 0.0789,0.53857 0.0763,1.08897 0.0736,1.63806 -6.6e-4,0.19531 -10e-4,0.39127 10e-4,0.58657 0.007,0.14204 0.005,0.27948 0.003,0.42152 -0.001,0.073 -0.003,0.1473 -0.003,0.22358 2.39693,0.0217 4.72875,0.0217 7.14672,0.0217 z m -0.0427,25.78225 v -22.13919 h -7.08228 v 22.13919 z"
                 fill="#f6b21c"
                 id="element-id-46944"
                 style="fill:#ffffff" /><path
                 d="m 286.68864,236.46267 c 0.95614,0 1.64398,0.50503 1.85902,1.34281 0.27948,1.06399 -0.46229,2.12797 -1.5585,2.2253 -0.0861,0.0105 -0.17163,0.0105 -0.25778,0.0105 h -23.41821 c -0.8917,0 -1.55784,-0.46229 -1.80509,-1.21457 -0.37614,-1.15013 0.44059,-2.33183 1.66568,-2.35353 1.2172,-0.0164 2.44033,-0.0138 3.66082,-0.0118 0.40639,0 0.81279,0.001 1.21852,0.001 z"
                 fill="#f6b21c"
                 id="element-id-54755"
                 style="fill:#ffffff" /><path
                 d="m 278.11297,242.89788 c -1.04952,6.6e-4 -2.10101,0.002 -3.14987,0.002 h -4.96483 c -0.51621,0 -1.03176,-0.001 -1.546,-0.002 l -0.28079,-6.6e-4 c -0.93444,-0.002 -1.86822,-0.004 -2.80529,0.003 -0.9568,0.0105 -1.70908,0.6451 -1.82745,1.51575 -0.12889,0.87 0.3551,1.70843 1.18235,1.95568 0.3334,0.0967 0.69902,0.10719 1.05346,0.10719 h 18.30213 c 0.23673,0 0.47281,0 0.70954,-0.0322 0.74177,-0.0967 1.23562,-0.52607 1.46183,-1.23562 0.37614,-1.18235 -0.50569,-2.31078 -1.82745,-2.31078 -1.90768,-0.007 -3.8193,-0.005 -5.73027,-0.003 z"
                 fill="#f6b21c"
                 id="element-id-37849"
                 style="fill:#ffffff" /></g></g><g
             data-paper-data="{&quot;isContainerElementsWrapper&quot;:true}"
             fill-rule="evenodd"
             id="element-id-20742"><path
               d="m 183.78356,143.78317 c -11.90249,11.90231 -21.11767,25.57014 -27.64554,41.00348 -6.75868,15.97915 -10.13803,32.71694 -10.13803,50.21338 0,17.49688 3.37934,34.23467 10.13803,50.21338 6.52875,15.4351 15.74392,29.10279 27.64554,41.00309 11.90117,11.90161 25.56887,21.11673 41.00309,27.64534 C 240.76492,360.62061 257.50271,364 275.00003,364 c 17.49688,0 34.23467,-3.37939 50.21338,-10.13816 15.43247,-6.5273 29.10016,-15.74241 41.00309,-27.64534 11.90205,-11.90161 21.11716,-25.56931 27.64534,-41.00309 C 400.62061,269.23514 404,252.49735 404,235.00003 404,217.50534 400.62061,200.76755 393.86184,184.78665 387.33586,169.35462 378.12074,155.6868 366.2165,143.78317 354.31489,131.88086 340.64719,122.66579 325.21341,116.13796 309.23339,109.37932 292.49559,106 275.00003,106 c -17.49556,0 -34.23336,3.37932 -50.21338,10.13796 -15.43334,6.52769 -29.10104,15.74276 -41.00309,27.64521 z m -35.7412,91.21686 c 0,-17.22025 3.32557,-33.69281 9.97672,-49.41769 6.42419,-15.18872 15.49371,-28.64037 27.20856,-40.35496 11.71442,-11.71464 25.16598,-20.78407 40.3547,-27.2083 15.72575,-6.65115 32.19832,-9.97672 49.41769,-9.97672 17.21937,0 33.69194,3.32557 49.41769,9.97672 15.18872,6.4241 28.64028,15.49353 40.3547,27.2083 11.71617,11.71591 20.78574,25.16756 27.2087,40.35496 6.65093,15.72663 9.97639,32.19919 9.97639,49.41769 0,17.22113 -3.32546,33.69369 -9.97639,49.41769 -6.42515,15.18959 -15.49472,28.64116 -27.2087,40.3547 -11.71442,11.71442 -25.16598,20.78398 -40.3547,27.2087 -15.72575,6.65093 -32.19832,9.97639 -49.41769,9.97639 -17.22113,0 -33.69369,-3.32546 -49.41769,-9.97639 -15.18915,-6.42515 -28.64072,-15.49472 -40.3547,-27.2087 -11.71354,-11.71222 -20.78308,-25.16379 -27.20863,-40.3547 -6.6511,-15.72444 -9.97665,-32.197 -9.97665,-49.41769 z"
               data-paper-data="{&quot;isBaseLogoContainer&quot;:true}"
               fill="#f6b21c"
               id="element-id-6555" /></g></g></g></g></g></svg>
