<?xml version="1.0" encoding="UTF-8" standalone="no"?>
<!-- Created with Inkscape (http://www.inkscape.org/) -->

<svg
   width="63.499954mm"
   height="63.500008mm"
   viewBox="0 0 63.499954 63.500008"
   version="1.1"
   id="svg5"
   xml:space="preserve"
   xmlns:inkscape="http://www.inkscape.org/namespaces/inkscape"
   xmlns:sodipodi="http://sodipodi.sourceforge.net/DTD/sodipodi-0.dtd"
   xmlns="http://www.w3.org/2000/svg"
   xmlns:svg="http://www.w3.org/2000/svg"><sodipodi:namedview
     id="namedview7"
     pagecolor="#ffffff"
     bordercolor="#000000"
     borderopacity="0.25"
     inkscape:showpageshadow="2"
     inkscape:pageopacity="0.0"
     inkscape:pagecheckerboard="0"
     inkscape:deskcolor="#d1d1d1"
     inkscape:document-units="mm"
     showgrid="false" /><defs
     id="defs2" /><g
     inkscape:label="Capa 1"
     inkscape:groupmode="layer"
     id="layer1"
     transform="translate(-65.209383,-31.273376)"><g
       id="g281"
       transform="matrix(0.26458333,0,0,0.26458333,24.198946,0.84629643)"><g
         fill="#f6b21c"
         fill-rule="none"
         stroke="none"
         stroke-width="1"
         stroke-linecap="butt"
         stroke-linejoin="miter"
         stroke-miterlimit="10"
         stroke-dasharray="none"
         stroke-dashoffset="0"
         font-family="none"
         font-weight="none"
         font-size="none"
         text-anchor="none"
         style="mix-blend-mode:normal"
         id="g153"><g
           data-paper-data="{&quot;isGlobalGroup&quot;:true,&quot;bounds&quot;:{&quot;x&quot;:155.0000857252463,&quot;y&quot;:114.99999999999999,&quot;width&quot;:239.99982854950744,&quot;height&quot;:240}}"
           id="g151"><circle
             style="mix-blend-mode:normal;fill:#04243c;fill-opacity:1;fill-rule:evenodd;stroke-width:1.00844"
             id="path649"
             cx="275.41452"
             cy="235.22897"
             r="119.05512" /><g
             data-paper-data="{&quot;stacked&quot;:true,&quot;isPrimaryText&quot;:true}"
             fill-rule="nonzero"
             id="element-id-65860"><path
               d="m 203.66569,286.76534 c 0.11196,0 0.22392,0.021 0.33588,0.063 0.11196,0.042 0.21925,0.11429 0.32188,0.21692 l 1.87532,1.97328 c -0.82103,1.07294 -1.84966,1.88231 -3.08587,2.42811 -1.23622,0.5458 -2.69868,0.8187 -4.3874,0.8187 -1.54877,0 -2.9366,-0.26357 -4.16348,-0.79071 -1.22689,-0.52714 -2.26717,-1.25488 -3.12086,-2.1832 -0.85369,-0.92833 -1.50912,-2.02926 -1.96628,-3.3028 -0.45717,-1.27354 -0.68575,-2.6567 -0.68575,-4.14949 0,-1.52078 0.26124,-2.91794 0.78371,-4.19147 0.52248,-1.27354 1.25254,-2.37213 2.1902,-3.2958 0.93766,-0.92366 2.05958,-1.64207 3.36577,-2.15521 1.30619,-0.51315 2.74766,-0.76972 4.32442,-0.76972 0.76505,0 1.48579,0.0676 2.16221,0.20293 0.67642,0.13528 1.30852,0.32188 1.89631,0.5598 0.58779,0.23791 1.12892,0.52248 1.62341,0.85369 0.49449,0.33121 0.93299,0.69741 1.31552,1.0986 l -1.59542,2.14122 c -0.10263,0.13062 -0.22392,0.24958 -0.36387,0.35687 -0.13995,0.10729 -0.33588,0.16094 -0.58779,0.16094 -0.16794,0 -0.32655,-0.0373 -0.47583,-0.11196 -0.14928,-0.0746 -0.30789,-0.16561 -0.47583,-0.2729 -0.16794,-0.10729 -0.3522,-0.22392 -0.5528,-0.34987 -0.20059,-0.12595 -0.43851,-0.24258 -0.71374,-0.34987 -0.27523,-0.10729 -0.59712,-0.19826 -0.96565,-0.2729 -0.36853,-0.0746 -0.80004,-0.11196 -1.29453,-0.11196 -0.85835,0 -1.64207,0.15161 -2.35114,0.45483 -0.70907,0.30322 -1.31785,0.73706 -1.82633,1.30153 -0.50848,0.56446 -0.905,1.24788 -1.18957,2.05025 -0.28456,0.80237 -0.42684,1.70271 -0.42684,2.70101 0,1.04495 0.14228,1.97328 0.42684,2.78498 0.28456,0.8117 0.67175,1.49512 1.16158,2.05025 0.48982,0.55513 1.06128,0.97731 1.71437,1.26654 0.6531,0.28923 1.35284,0.43384 2.09923,0.43384 0.42918,0 0.82103,-0.021 1.17557,-0.063 0.35454,-0.042 0.68342,-0.11429 0.98664,-0.21692 0.30322,-0.10263 0.59245,-0.23558 0.86768,-0.39885 0.27523,-0.16327 0.5528,-0.3662 0.8327,-0.60878 0.11196,-0.0933 0.23325,-0.17027 0.36387,-0.23092 0.13062,-0.0606 0.2659,-0.091 0.40585,-0.091 z"
               data-paper-data="{&quot;glyphName&quot;:&quot;C&quot;,&quot;glyphIndex&quot;:0,&quot;firstGlyphOfWord&quot;:true,&quot;word&quot;:1,&quot;line&quot;:1,&quot;firstGlyphOfFirstLine&quot;:true}"
               fill="#f6b21c"
               id="element-id-23244" /><path
               d="m 231.39424,281.83914 c 0,1.47413 -0.25424,2.84563 -0.76272,4.1145 -0.50848,1.26887 -1.22455,2.37213 -2.14822,3.30979 -0.92366,0.93766 -2.03626,1.67239 -3.33778,2.2042 -1.30153,0.53181 -2.74533,0.79771 -4.33142,0.79771 -1.58609,0 -3.03223,-0.2659 -4.33842,-0.79771 -1.30619,-0.53181 -2.42345,-1.26654 -3.35178,-2.2042 -0.92833,-0.93766 -1.64673,-2.04092 -2.15521,-3.30979 -0.50848,-1.26887 -0.76272,-2.64037 -0.76272,-4.1145 0,-1.47413 0.25424,-2.84563 0.76272,-4.1145 0.50848,-1.26887 1.22689,-2.3698 2.15521,-3.3028 0.92833,-0.93299 2.04559,-1.66539 3.35178,-2.1972 1.30619,-0.53181 2.75233,-0.79771 4.33842,-0.79771 1.58609,0 3.02989,0.26824 4.33142,0.80471 1.30153,0.53647 2.41412,1.2712 3.33778,2.2042 0.92366,0.93299 1.63974,2.03392 2.14822,3.3028 0.50848,1.26887 0.76272,2.63571 0.76272,4.1005 z m -4.84223,0 c 0,-1.00763 -0.13062,-1.91497 -0.39186,-2.72201 -0.26124,-0.80704 -0.63677,-1.49046 -1.12659,-2.05025 -0.48982,-0.5598 -1.08927,-0.98897 -1.79834,-1.28753 -0.70907,-0.29856 -1.51611,-0.44784 -2.42112,-0.44784 -0.91433,0 -1.72837,0.14928 -2.44211,0.44784 -0.71374,0.29856 -1.31552,0.72773 -1.80534,1.28753 -0.48982,0.5598 -0.86535,1.24321 -1.12659,2.05025 -0.26124,0.80704 -0.39186,1.71437 -0.39186,2.72201 0,1.01696 0.13062,1.92896 0.39186,2.736 0.26124,0.80704 0.63677,1.49046 1.12659,2.05025 0.48982,0.5598 1.0916,0.98664 1.80534,1.28053 0.71374,0.29389 1.52778,0.44084 2.44211,0.44084 0.905,0 1.71204,-0.14695 2.42112,-0.44084 0.70907,-0.29389 1.30852,-0.72074 1.79834,-1.28053 0.48982,-0.5598 0.86535,-1.24321 1.12659,-2.05025 0.26124,-0.80704 0.39186,-1.71904 0.39186,-2.736 z"
               data-paper-data="{&quot;glyphName&quot;:&quot;O&quot;,&quot;glyphIndex&quot;:1,&quot;word&quot;:1,&quot;line&quot;:1}"
               fill="#f6b21c"
               id="element-id-92118" /><path
               d="m 247.00321,282.72082 c 0.1866,0.35454 0.3662,0.72307 0.5388,1.1056 0.1726,0.38253 0.33821,0.77438 0.49682,1.17557 0.15861,-0.41052 0.32655,-0.80937 0.50382,-1.19656 0.17727,-0.38719 0.3592,-0.76272 0.5458,-1.12659 l 5.23409,-10.30024 c 0.0933,-0.17727 0.18893,-0.31489 0.2869,-0.41285 0.098,-0.098 0.20759,-0.17027 0.32888,-0.21692 0.12129,-0.0466 0.25891,-0.0746 0.41285,-0.084 0.15394,-0.009 0.33354,-0.014 0.5388,-0.014 h 3.61068 v 20.39056 h -4.17048 v -11.72772 c 0,-0.56913 0.028,-1.1849 0.084,-1.84733 l -5.40203,10.48218 c -0.16794,0.32655 -0.39419,0.57379 -0.67875,0.74173 -0.28456,0.16794 -0.60878,0.25191 -0.97265,0.25191 h -0.64377 c -0.36387,0 -0.68808,-0.084 -0.97265,-0.25191 -0.28456,-0.16794 -0.51081,-0.41518 -0.67875,-0.74173 l -5.43002,-10.49617 c 0.0373,0.32655 0.0653,0.65076 0.084,0.97265 0.0187,0.32188 0.028,0.61811 0.028,0.88868 V 292.0414 H 236.577 v -20.39056 h 3.61068 c 0.20526,0 0.38486,0.005 0.5388,0.014 0.15394,0.009 0.29156,0.0373 0.41285,0.084 0.12129,0.0466 0.23092,0.11896 0.32888,0.21692 0.098,0.098 0.1936,0.23558 0.2869,0.41285 z"
               data-paper-data="{&quot;glyphName&quot;:&quot;M&quot;,&quot;glyphIndex&quot;:2,&quot;word&quot;:1,&quot;line&quot;:1}"
               fill="#f6b21c"
               id="element-id-56710" /><path
               d="m 270.50531,285.2259 v 6.81551 h -4.73027 v -20.39056 h 7.19338 c 1.43681,0 2.67069,0.17027 3.70165,0.51081 1.03096,0.34054 1.87998,0.80937 2.54707,1.40649 0.66709,0.59712 1.15924,1.30153 1.47646,2.11323 0.31722,0.8117 0.47583,1.68872 0.47583,2.63104 0,1.01696 -0.16327,1.94996 -0.48982,2.79898 -0.32655,0.84902 -0.8257,1.57676 -1.49745,2.1832 -0.67175,0.60645 -1.52311,1.07994 -2.55407,1.42048 -1.03096,0.34054 -2.25085,0.51081 -3.65967,0.51081 z m 0,-3.56869 h 2.4631 c 1.23155,0 2.11789,-0.29389 2.65903,-0.88168 0.54114,-0.58779 0.8117,-1.40882 0.8117,-2.4631 0,-0.4665 -0.07,-0.89101 -0.20992,-1.27354 -0.13995,-0.38253 -0.3522,-0.71141 -0.63677,-0.98664 -0.28456,-0.27523 -0.64377,-0.48749 -1.07761,-0.63677 -0.43384,-0.14928 -0.94932,-0.22392 -1.54644,-0.22392 h -2.4631 z"
               data-paper-data="{&quot;glyphName&quot;:&quot;P&quot;,&quot;glyphIndex&quot;:3,&quot;word&quot;:1,&quot;line&quot;:1}"
               fill="#f6b21c"
               id="element-id-86325" /><path
               d="m 303.14607,292.04142 h -3.66666 c -0.41052,0 -0.74873,-0.0956 -1.01463,-0.2869 -0.2659,-0.19126 -0.45017,-0.43617 -0.5528,-0.73473 l -1.20356,-3.5547 h -7.75317 l -1.20356,3.5547 c -0.0933,0.26124 -0.27523,0.49682 -0.5458,0.70674 -0.27057,0.20992 -0.60178,0.31489 -0.99364,0.31489 h -3.69465 l 7.89312,-20.39056 h 4.84223 z m -13.09923,-7.79516 h 5.56997 l -1.87532,-5.58396 c -0.12129,-0.35454 -0.26357,-0.77205 -0.42684,-1.25254 -0.16327,-0.48049 -0.32422,-1.00063 -0.48282,-1.56043 -0.14928,0.56913 -0.30322,1.09627 -0.46183,1.58142 -0.15861,0.48516 -0.30789,0.905 -0.44784,1.25954 z"
               data-paper-data="{&quot;glyphName&quot;:&quot;A&quot;,&quot;glyphIndex&quot;:4,&quot;word&quot;:1,&quot;line&quot;:1}"
               fill="#f6b21c"
               id="element-id-90785" /><path
               d="m 312.44334,284.49817 v 7.54325 h -4.73027 v -20.39056 h 6.63358 c 1.47413,0 2.73134,0.15161 3.77162,0.45483 1.04029,0.30322 1.88931,0.7254 2.54707,1.26654 0.65776,0.54114 1.13592,1.18024 1.43448,1.9173 0.29856,0.73706 0.44784,1.53944 0.44784,2.40712 0,0.66243 -0.0886,1.28753 -0.2659,1.87532 -0.17727,0.58779 -0.44084,1.13125 -0.79071,1.63041 -0.34987,0.49915 -0.77905,0.94466 -1.28753,1.33651 -0.50848,0.39186 -1.09393,0.71374 -1.75636,0.96565 0.31722,0.15861 0.61344,0.35454 0.88868,0.58779 0.27523,0.23325 0.51548,0.51781 0.72074,0.85369 l 4.33842,7.09541 h -4.28244 c -0.79304,0 -1.36217,-0.29856 -1.70738,-0.89567 l -3.38676,-5.91984 c -0.14928,-0.26124 -0.32422,-0.44784 -0.52481,-0.5598 -0.20059,-0.11196 -0.48282,-0.16794 -0.84669,-0.16794 z m 0,-3.26081 h 1.90331 c 0.64377,0 1.1919,-0.0816 1.6444,-0.24491 0.4525,-0.16327 0.82337,-0.38952 1.11259,-0.67875 0.28923,-0.28923 0.49915,-0.62744 0.62977,-1.01463 0.13062,-0.38719 0.19593,-0.80471 0.19593,-1.25254 0,-0.89567 -0.29156,-1.59542 -0.87468,-2.09923 -0.58312,-0.50382 -1.48579,-0.75572 -2.70801,-0.75572 h -1.90331 z"
               data-paper-data="{&quot;glyphName&quot;:&quot;R&quot;,&quot;glyphIndex&quot;:5,&quot;word&quot;:1,&quot;line&quot;:1}"
               fill="#f6b21c"
               id="element-id-37392" /><path
               d="m 343.20879,271.65086 v 3.75063 h -5.73791 v 16.63993 h -4.73027 v -16.63993 h -5.73791 v -3.75063 z"
               data-paper-data="{&quot;glyphName&quot;:&quot;T&quot;,&quot;glyphIndex&quot;:6,&quot;word&quot;:1,&quot;line&quot;:1}"
               fill="#f6b21c"
               id="element-id-91212" /><path
               d="m 361.21089,271.65086 v 3.63867 h -8.36895 v 4.75826 h 6.40966 v 3.49872 h -6.40966 v 4.85623 h 8.36895 v 3.63867 h -13.12721 v -20.39056 z"
               data-paper-data="{&quot;glyphName&quot;:&quot;E&quot;,&quot;glyphIndex&quot;:7,&quot;lastGlyphOfWord&quot;:true,&quot;word&quot;:1,&quot;line&quot;:1,&quot;lastGlyphOfFirstLine&quot;:true}"
               fill="#f6b21c"
               id="element-id-83034" /><path
               d="m 224.74772,319.69058 c 0,2.86508 -0.49414,5.50803 -1.48241,7.92884 -0.98827,2.42081 -2.38001,4.51523 -4.17522,6.28324 -1.79521,1.76801 -3.95762,3.14615 -6.48724,4.13442 -2.52961,0.98827 -5.33576,1.48241 -8.41845,1.48241 h -15.39529 v -39.63062 h 15.39529 c 3.08268,0 5.88883,0.49867 8.41845,1.49601 2.52961,0.99734 4.69203,2.37548 6.48724,4.13442 1.79521,1.75894 3.18695,3.84882 4.17522,6.26964 0.98827,2.42081 1.48241,5.0547 1.48241,7.90164 z m -9.41126,0 c 0,-1.95841 -0.25387,-3.72642 -0.7616,-5.30403 -0.50774,-1.57761 -1.23761,-2.91495 -2.18961,-4.01202 -0.95201,-1.09707 -2.11708,-1.94028 -3.49522,-2.52961 -1.37814,-0.58934 -2.94668,-0.884 -4.70563,-0.884 h -6.14723 v 25.48654 h 6.14723 c 1.75894,0 3.32749,-0.29467 4.70563,-0.884 1.37814,-0.58934 2.54321,-1.43254 3.49522,-2.52961 0.95201,-1.09707 1.68188,-2.43441 2.18961,-4.01202 0.50774,-1.57761 0.7616,-3.35469 0.7616,-5.33123 z"
               data-paper-data="{&quot;glyphName&quot;:&quot;D&quot;,&quot;glyphIndex&quot;:8,&quot;firstGlyphOfWord&quot;:true,&quot;word&quot;:2,&quot;line&quot;:2,&quot;firstGlyphOfSecondLine&quot;:true}"
               fill="#f6b21c"
               id="element-id-24500" /><path
               d="m 251.30413,332.25705 c 1.23307,0 2.33468,-0.204 3.30482,-0.612 0.97014,-0.408 1.79068,-0.99281 2.46161,-1.75441 0.67094,-0.7616 1.18321,-1.69094 1.53681,-2.78802 0.3536,-1.09707 0.5304,-2.34375 0.5304,-3.74002 v -23.47373 h 9.19365 v 23.47373 c 0,2.42988 -0.3944,4.66029 -1.18321,6.69124 -0.7888,2.03094 -1.91761,3.78082 -3.38642,5.24963 -1.46881,1.46881 -3.25495,2.61121 -5.35843,3.42722 -2.10348,0.816 -4.46989,1.22401 -7.09924,1.22401 -2.64748,0 -5.02296,-0.408 -7.12644,-1.22401 -2.10348,-0.816 -3.88962,-1.95841 -5.35843,-3.42722 -1.46881,-1.46881 -2.59308,-3.21868 -3.37282,-5.24963 -0.77974,-2.03094 -1.16961,-4.26136 -1.16961,-6.69124 v -23.47373 h 9.19365 v 23.44653 c 0,1.39627 0.1768,2.64295 0.5304,3.74002 0.3536,1.09707 0.86587,2.03094 1.53681,2.80162 0.67094,0.77067 1.49148,1.36001 2.46161,1.76801 0.97014,0.408 2.07174,0.612 3.30482,0.612 z"
               data-paper-data="{&quot;glyphName&quot;:&quot;U&quot;,&quot;glyphIndex&quot;:9,&quot;word&quot;:2,&quot;line&quot;:2}"
               fill="#f6b21c"
               id="element-id-14767" /><path
               d="m 319.09598,319.69058 c 0,2.86508 -0.49414,5.5307 -1.48241,7.99685 -0.98827,2.46615 -2.38001,4.61043 -4.17522,6.43284 -1.79521,1.82241 -3.95762,3.25042 -6.48724,4.28402 -2.52961,1.03361 -5.33576,1.55041 -8.41845,1.55041 -3.08268,0 -5.89337,-0.5168 -8.43205,-1.55041 -2.53868,-1.03361 -4.71016,-2.46161 -6.51444,-4.28402 -1.80428,-1.82241 -3.20055,-3.96669 -4.18882,-6.43284 -0.98827,-2.46615 -1.48241,-5.13176 -1.48241,-7.99685 0,-2.86508 0.49414,-5.5307 1.48241,-7.99685 0.98827,-2.46615 2.38455,-4.60589 4.18882,-6.41924 1.80428,-1.81334 3.97576,-3.23682 6.51444,-4.27042 2.53868,-1.03361 5.34936,-1.55041 8.43205,-1.55041 3.08268,0 5.88883,0.52134 8.41845,1.56401 2.52961,1.04267 4.69203,2.47068 6.48724,4.28402 1.79521,1.81334 3.18695,3.95309 4.17522,6.41924 0.98827,2.46615 1.48241,5.1227 1.48241,7.96964 z m -9.41125,0 c 0,-1.95841 -0.25387,-3.72189 -0.7616,-5.29043 -0.50774,-1.56854 -1.23761,-2.89682 -2.18961,-3.98482 -0.95201,-1.08801 -2.11708,-1.92214 -3.49522,-2.50241 -1.37814,-0.58027 -2.94668,-0.8704 -4.70563,-0.8704 -1.77708,0 -3.35922,0.29013 -4.74643,0.8704 -1.38721,0.58027 -2.55681,1.41441 -3.50882,2.50241 -0.95201,1.08801 -1.68188,2.41628 -2.18961,3.98482 -0.50774,1.56854 -0.7616,3.33202 -0.7616,5.29043 0,1.97654 0.25387,3.74909 0.7616,5.31763 0.50774,1.56854 1.23761,2.89682 2.18961,3.98482 0.95201,1.08801 2.12161,1.91761 3.50882,2.48881 1.38721,0.5712 2.96935,0.8568 4.74643,0.8568 1.75894,0 3.32749,-0.2856 4.70563,-0.8568 1.37814,-0.5712 2.54321,-1.40081 3.49522,-2.48881 0.95201,-1.08801 1.68188,-2.41628 2.18961,-3.98482 0.50774,-1.56854 0.7616,-3.34109 0.7616,-5.31763 z"
               data-paper-data="{&quot;glyphName&quot;:&quot;O&quot;,&quot;glyphIndex&quot;:10,&quot;word&quot;:2,&quot;line&quot;:2}"
               fill="#f6b21c"
               id="element-id-37461" /><path
               d="m 355.79805,329.26503 c 0.2176,0 0.4352,0.0408 0.6528,0.1224 0.2176,0.0816 0.42614,0.22213 0.6256,0.4216 l 3.64482,3.83522 c -1.59574,2.08535 -3.59495,3.65842 -5.99763,4.71923 -2.40268,1.06081 -5.2451,1.59121 -8.52725,1.59121 -3.01015,0 -5.7075,-0.51227 -8.09205,-1.53681 -2.38455,-1.02454 -4.40642,-2.43895 -6.06563,-4.24322 -1.65921,-1.80428 -2.93308,-3.94402 -3.82162,-6.41924 -0.88854,-2.47521 -1.33281,-5.1635 -1.33281,-8.06485 0,-2.95575 0.50774,-5.67123 1.52321,-8.14645 1.01547,-2.47521 2.43441,-4.61043 4.25682,-6.40564 1.82241,-1.79521 4.00296,-3.19148 6.54164,-4.18882 2.53868,-0.99734 5.3403,-1.49601 8.40485,-1.49601 1.48694,0 2.88775,0.13147 4.20242,0.3944 1.31467,0.26293 2.54321,0.6256 3.68562,1.08801 1.14241,0.4624 2.19415,1.01547 3.15522,1.65921 0.96107,0.64374 1.81334,1.35547 2.55681,2.13521 l -3.10082,4.16162 c -0.19947,0.25387 -0.4352,0.48507 -0.7072,0.6936 -0.272,0.20853 -0.6528,0.3128 -1.14241,0.3128 -0.3264,0 -0.63467,-0.0725 -0.92481,-0.2176 -0.29013,-0.14507 -0.5984,-0.32187 -0.92481,-0.5304 -0.3264,-0.20853 -0.68454,-0.4352 -1.07441,-0.68 -0.38987,-0.2448 -0.85227,-0.47147 -1.38721,-0.68 -0.53494,-0.20853 -1.16054,-0.38534 -1.87681,-0.5304 -0.71627,-0.14507 -1.55494,-0.2176 -2.51601,-0.2176 -1.66828,0 -3.19148,0.29467 -4.56963,0.884 -1.37814,0.58934 -2.56135,1.43254 -3.54962,2.52961 -0.98827,1.09707 -1.75894,2.42535 -2.31201,3.98482 -0.55307,1.55948 -0.8296,3.30935 -0.8296,5.24963 0,2.03094 0.27653,3.83522 0.8296,5.41283 0.55307,1.57761 1.30561,2.90588 2.25761,3.98482 0.95201,1.07894 2.06268,1.89948 3.33202,2.46161 1.26934,0.56214 2.62935,0.8432 4.08002,0.8432 0.83414,0 1.59574,-0.0408 2.28481,-0.1224 0.68907,-0.0816 1.32827,-0.22213 1.91761,-0.4216 0.58934,-0.19947 1.15147,-0.45787 1.68641,-0.7752 0.53494,-0.31734 1.07441,-0.71174 1.61841,-1.18321 0.2176,-0.18133 0.45334,-0.33094 0.7072,-0.4488 0.25387,-0.11787 0.5168,-0.1768 0.7888,-0.1768 z"
               data-paper-data="{&quot;glyphName&quot;:&quot;C&quot;,&quot;glyphIndex&quot;:11,&quot;lastGlyphOfWord&quot;:true,&quot;word&quot;:2,&quot;line&quot;:2,&quot;lastGlyphOfSecondLine&quot;:true}"
               fill="#f6b21c"
               id="element-id-48866" /></g><g
             data-paper-data="{&quot;fillRule&quot;:&quot;evenodd&quot;,&quot;fillRuleOriginal&quot;:&quot;evenodd&quot;,&quot;isIcon&quot;:true,&quot;iconStyle&quot;:&quot;standalone&quot;,&quot;selectedEffects&quot;:{&quot;container&quot;:&quot;&quot;,&quot;transformation&quot;:&quot;&quot;,&quot;pattern&quot;:&quot;&quot;},&quot;bounds&quot;:{&quot;x&quot;:235.49859915421536,&quot;y&quot;:130.04547974299214,&quot;width&quot;:79.00280169156935,&quot;height&quot;:120.22126306628465},&quot;iconType&quot;:&quot;icon&quot;,&quot;rawIconId&quot;:&quot;0f95f4ef-adb0-4fa7-af78-7ecbc2484501&quot;,&quot;isSvgStockIcon&quot;:true,&quot;combineTerms&quot;:&quot;light_bulb&quot;,&quot;combineTermsExtended&quot;:{&quot;icon&quot;:[&quot;light_bulb&quot;]},&quot;isDetailed&quot;:false,&quot;suitableAsStandaloneIcon&quot;:true}"
             fill-rule="evenodd"
             id="element-id-40228"
             style="fill:#ffffff"><g
               data-paper-data="{&quot;isPathIcon&quot;:true}"
               id="element-id-46335"
               style="fill:#ffffff"><path
                 d="m 258.2413,233.12861 c -1.92941,0 -2.83026,-0.88599 -2.83026,-2.8014 -0.0429,-7.56195 -1.80084,-14.76617 -4.67396,-21.71239 -2.30112,-5.54683 -5.23196,-10.76392 -7.96165,-16.09559 -1.68714,-3.28769 -3.30168,-6.60336 -4.75967,-9.99163 -2.28713,-5.33167 -2.93084,-10.90648 -2.27313,-16.68071 0.74343,-6.4608 2.64397,-12.50703 6.26051,-17.93928 6.31824,-9.49135 15.13788,-15.29444 26.35836,-17.2667 17.453,-3.07341 34.74856,5.97451 42.28165,21.98352 2.91598,6.18967 4.10283,12.76505 3.81683,19.5687 -0.17143,4.33111 -1.43,8.44793 -3.28769,12.32161 -2.44456,5.11739 -5.08853,10.1342 -7.67652,15.17987 -2.84426,5.53196 -5.43138,11.17849 -7.03193,17.22472 -1.17199,4.40283 -1.8297,8.8625 -1.84457,13.42188 -0.014,1.91541 -0.91485,2.8014 -2.83026,2.8014 -5.6168,-0.014 -11.23447,-0.014 -16.83814,-0.014 z m 21.54096,-39.05081 c 0,-0.33061 -0.003,-0.65684 -0.004,-0.97782 v -0.009 c -0.005,-0.78891 -0.0114,-1.55682 0.0192,-2.31599 0.028,-1.00056 0.50028,-1.78684 1.44312,-2.17255 0.91485,-0.38571 1.77285,-0.21428 2.51628,0.42856 0.64284,0.572 0.77141,1.32942 0.77141,2.14456 -0.009,7.28906 -0.006,14.579 -0.003,21.86894 l 8.7e-4,2.20229 c 8.7e-4,4.01187 0.003,8.02287 0.003,12.03561 0,0.063 0.002,0.12245 0.003,0.18367 l 8.7e-4,0.0332 c 0.003,0.10845 0.005,0.21516 -0.004,0.32623 -0.0568,0.44256 0.12857,0.58599 0.572,0.58599 0.84576,-0.0219 1.69326,-0.0192 2.53989,-0.0157 0.28338,0 0.565,8.7e-4 0.8475,8.7e-4 h 1.40114 c 0.028,-0.25714 0.0429,-0.41457 0.0568,-0.57113 0.25714,-4.47454 1.00056,-8.8625 2.23028,-13.16475 1.85769,-6.48966 4.74568,-12.5359 7.83308,-18.49642 2.44368,-4.71769 4.87424,-9.4485 7.16137,-14.23703 1.34341,-2.83026 2.21541,-5.84682 2.5154,-9.00506 0.32886,-3.44512 0,-6.83251 -0.67171,-10.22078 -2.92997,-14.92273 -15.12302,-26.17206 -30.21717,-27.71576 -9.49135,-0.9717 -18.05386,1.57256 -25.52922,7.49023 -6.76167,5.35966 -10.74905,12.43532 -12.32161,20.88325 -1.01456,5.46024 -0.95771,10.83476 1.00056,16.10958 1.45799,3.91654 3.38739,7.60393 5.27482,11.32105 2.55826,5.0308 5.18823,10.03361 7.54708,15.17987 2.8014,6.13195 4.55938,12.60761 5.17424,19.35442 0.0857,1.00056 0.17143,2.00113 0.25714,3.05854 0.46705,0 0.92797,-0.004 1.38627,-0.007 1.05654,-0.0105 2.09383,-0.0184 3.13113,0.021 0.71456,0.0289 0.84313,-0.19941 0.84313,-0.87199 -0.0149,-12.02075 -0.0149,-24.0275 -0.0149,-36.04912 0,-0.286 0,-0.58599 0.0149,-0.87199 0.0708,-1.18598 0.9717,-2.1157 2.15856,-2.21541 1.18598,-0.0997 2.28625,0.65771 2.45855,1.84369 0.10495,0.71631 0.10146,1.44837 0.098,2.17867 -8.7e-4,0.25976 -0.002,0.5204 0.002,0.78016 0.01,0.18892 0.006,0.37171 0.004,0.56063 -0.002,0.0971 -0.004,0.19591 -0.004,0.29737 3.18798,0.0289 6.28938,0.0289 9.50535,0.0289 z m -0.0568,34.29114 v -29.44576 h -9.41963 v 29.44576 z"
                 fill="#f6b21c"
                 id="element-id-13226"
                 style="fill:#ffffff" /><path
                 d="m 290.54618,236.94544 c 1.27169,0 2.18654,0.67171 2.47254,1.78597 0.37171,1.41513 -0.61486,2.83026 -2.07284,2.95971 -0.11457,0.014 -0.22828,0.014 -0.34285,0.014 h -31.14689 c -1.18598,0 -2.07197,-0.61486 -2.40083,-1.61542 -0.50028,-1.52971 0.58599,-3.10139 2.21541,-3.13026 1.61892,-0.0219 3.24571,-0.0184 4.869,-0.0157 0.54051,0 1.08103,0.002 1.62067,0.002 z"
                 fill="#f6b21c"
                 id="element-id-21456"
                 style="fill:#ffffff" /><path
                 d="m 279.14029,245.50445 c -1.39589,8.7e-4 -2.7944,0.003 -4.18942,0.003 h -6.60336 c -0.68657,0 -1.37228,-0.002 -2.05623,-0.003 l -0.37346,-8.7e-4 c -1.24283,-0.003 -2.48479,-0.005 -3.73112,0.004 -1.27257,0.014 -2.27313,0.858 -2.43056,2.01599 -0.17143,1.15712 0.47229,2.27226 1.57256,2.60111 0.44343,0.12857 0.92972,0.14256 1.40114,0.14256 h 24.34236 c 0.31486,0 0.62885,0 0.94371,-0.0429 0.98657,-0.12857 1.64341,-0.69969 1.94428,-1.64341 0.50028,-1.57256 -0.67258,-3.07341 -2.43056,-3.07341 -2.53727,-0.009 -5.07978,-0.006 -7.62142,-0.004 z"
                 fill="#f6b21c"
                 id="element-id-57890"
                 style="fill:#ffffff" /></g></g><path
             d="m 190.14744,150.14752 c 11.0717,-11.07227 23.7859,-19.64451 38.14259,-25.71672 14.86419,-6.2872 30.43418,-9.43081 46.70997,-9.43081 16.27522,0 31.84521,3.1436 46.70997,9.43081 14.35669,6.0722 27.07089,14.64444 38.14259,25.71672 11.0717,11.0717 19.64394,23.7859 25.71672,38.14259 6.28709,14.86419 9.43063,30.43418 9.43063,46.70997 0,16.27522 -3.14354,31.84521 -9.43063,46.70997 -5.94791,14.06225 -14.29454,26.54911 -25.03991,37.46057 l 0.0651,-3.49895 c 9.68646,-10.25546 17.27987,-21.88547 22.78021,-34.89003 6.16136,-14.56758 9.24204,-29.8281 9.24204,-45.78157 0,-15.9529 -3.08068,-31.21342 -9.24204,-45.78157 -5.95162,-14.07094 -14.35384,-26.53311 -25.20665,-37.38649 -10.85339,-10.85282 -23.31555,-19.25503 -37.38649,-25.20665 -14.56815,-6.16147 -29.82867,-9.24221 -45.78157,-9.24221 -15.9529,0 -31.21342,3.08074 -45.78157,9.24221 -14.07094,5.95162 -26.53311,14.35384 -37.38649,25.20665 -10.85282,10.85282 -19.25503,23.31498 -25.20665,37.38649 -6.16136,14.56758 -9.24204,29.8281 -9.24204,45.78157 0,15.95347 3.08068,31.21399 9.24204,45.78157 4.89651,11.57578 11.45103,22.06246 19.66358,31.46004 v 3.5753 c -9.2248,-10.09568 -16.51085,-21.46466 -21.85815,-34.10693 -6.28709,-14.86476 -9.43063,-30.43475 -9.43063,-46.70997 0,-16.2758 3.14354,-31.84579 9.43063,-46.70997 6.07278,-14.35669 14.64502,-27.07089 25.71672,-38.14259 z M 321.70997,345.56937 C 306.84521,351.85646 291.27522,355 275,355 c -16.27465,0 -31.84464,-3.14354 -46.70997,-9.43063 -4.22768,-1.78801 -8.31298,-3.79289 -12.25588,-6.01462 l 3.09912,-1.01346 c 3.26448,1.75921 6.6262,3.37038 10.08517,4.83351 14.56758,6.16136 29.8281,9.24204 45.78157,9.24204 15.9529,0 31.21342,-3.08068 45.78157,-9.24204 3.69463,-1.56273 7.27835,-3.29441 10.75114,-5.19504 l 1.32614,0.086 0.24577,0.18105 1.31463,0.85095 c -4.08285,2.32428 -8.31928,4.4148 -12.70928,6.27157 z"
             data-paper-data="{&quot;isLogoContainer&quot;:true}"
             fill-rule="nonzero"
             fill="#f6b21c"
             id="element-id-85001" /></g></g></g></g></svg>
