<?xml version="1.0" encoding="UTF-8" standalone="no"?>
<!-- Created with Inkscape (http://www.inkscape.org/) -->

<svg
   width="41.696167mm"
   height="32.999985mm"
   viewBox="0 0 41.696167 32.999985"
   version="1.1"
   id="svg5"
   xml:space="preserve"
   xmlns:inkscape="http://www.inkscape.org/namespaces/inkscape"
   xmlns:sodipodi="http://sodipodi.sourceforge.net/DTD/sodipodi-0.dtd"
   xmlns:xlink="http://www.w3.org/1999/xlink"
   xmlns="http://www.w3.org/2000/svg"
   xmlns:svg="http://www.w3.org/2000/svg"><sodipodi:namedview
     id="namedview7"
     pagecolor="#ffffff"
     bordercolor="#000000"
     borderopacity="0.25"
     inkscape:showpageshadow="2"
     inkscape:pageopacity="0.0"
     inkscape:pagecheckerboard="0"
     inkscape:deskcolor="#d1d1d1"
     inkscape:document-units="mm"
     showgrid="false" /><defs
     id="defs2"><linearGradient
       inkscape:collect="always"
       id="linearGradient4577"><stop
         style="stop-color:#07eaf3;stop-opacity:1;"
         offset="0"
         id="stop4573" /><stop
         style="stop-color:#07eaf3;stop-opacity:0.8081181;"
         offset="0.19248827"
         id="stop4583" /><stop
         style="stop-color:#04d833;stop-opacity:1;"
         offset="0.90140843"
         id="stop4575" /></linearGradient><linearGradient
       inkscape:collect="always"
       xlink:href="#linearGradient4577"
       id="linearGradient9368"
       gradientUnits="userSpaceOnUse"
       gradientTransform="translate(111.81988,127.08589)"
       x1="24.357586"
       y1="104.9328"
       x2="61.383728"
       y2="104.9328" /></defs><g
     inkscape:label="Capa 1"
     inkscape:groupmode="layer"
     id="layer1"
     transform="translate(-131.50746,-214.99253)"><rect
       style="fill:#1a1a1a;fill-opacity:1;fill-rule:evenodd;stroke-width:0.264583"
       id="rect9330"
       width="33"
       height="33"
       x="131.50746"
       y="214.99252"
       ry="5.1261969"
       inkscape:export-filename="rect9330.svg"
       inkscape:export-xdpi="96"
       inkscape:export-ydpi="96" /><path
       style="fill:url(#linearGradient9368);fill-opacity:1;fill-rule:evenodd;stroke-width:0.142302"
       d="m 136.2808,223.1767 0.68886,17.19054 c 0,0 -0.55109,2.86509 3.03098,3.00834 3.58206,0.14326 17.497,0 17.497,0 l 15.70598,-22.6342 -7.3019,-0.14326 -14.55838,21.61725 -5.00521,-0.55884 -7.0271,-12.69874 c 0,0 0.29164,-0.9119 0.92856,-1.46132 0.43062,-0.37147 0.99401,-0.4519 1.82762,-0.4519 1.07157,0 2.48667,2.61123 3.91219,4.94787 1.32367,2.16969 2.70085,4.07717 2.70085,4.07717 l 13.36386,-12.6064 -1.37772,-1.86231 -11.57282,10.74409 8.54184,-11.17385 c 0,0 -20.11467,-0.42976 -20.9413,-0.14325 -0.82663,0.28651 -0.41331,2.14881 -0.41331,2.14881 z"
       id="path2910-7-3"
       sodipodi:nodetypes="ccsccccccssscccccsc" /></g></svg>
