<?xml version="1.0" encoding="UTF-8" standalone="no"?>
<!-- Created with Inkscape (http://www.inkscape.org/) -->

<svg
   width="174.3582mm"
   height="43.589561mm"
   viewBox="0 0 174.3582 43.589561"
   version="1.1"
   id="svg5"
   xml:space="preserve"
   xmlns:xlink="http://www.w3.org/1999/xlink"
   xmlns="http://www.w3.org/2000/svg"
   xmlns:svg="http://www.w3.org/2000/svg"><defs
     id="defs2"><linearGradient
       id="linearGradient4577"><stop
         style="stop-color:#07eaf3;stop-opacity:1;"
         offset="0"
         id="stop4573" /><stop
         style="stop-color:#07eaf3;stop-opacity:0.8081181;"
         offset="0.19248827"
         id="stop4583" /><stop
         style="stop-color:#04d833;stop-opacity:1;"
         offset="0.90140843"
         id="stop4575" /></linearGradient><linearGradient
       xlink:href="#linearGradient4577"
       id="linearGradient4581"
       x1="24.357586"
       y1="104.9328"
       x2="61.383728"
       y2="104.9328"
       gradientUnits="userSpaceOnUse" /></defs><g
     id="layer1"
     transform="translate(-19.578358,-82.376867)"><rect
       style="fill:#000000;fill-rule:evenodd;stroke-width:0.264583"
       id="rect234"
       width="174.3582"
       height="43.58955"
       x="19.578358"
       y="82.376869"
       ry="5.1261973" /><text
       xml:space="preserve"
       style="font-weight:bold;font-size:12.7px;font-family:'Hotel De Paris Xe';-inkscape-font-specification:'Hotel De Paris Xe Bold';fill:#000000;fill-rule:evenodd;stroke-width:0.264583"
       x="62.288673"
       y="105.78899"
       id="text342"><tspan
         id="tspan340"
         style="font-style:normal;font-variant:normal;font-weight:bold;font-stretch:normal;font-family:'Old Antic Bold';-inkscape-font-specification:'Old Antic Bold,  Bold';fill:#ffffff;stroke-width:0.264583"
         x="62.288673"
         y="105.78899">PRESENTE PROFE</tspan></text><rect
       style="fill:#07eaf3;fill-opacity:1;fill-rule:evenodd;stroke-width:0.264583"
       id="rect656"
       width="127.79967"
       height="4.2485843"
       x="61.327583"
       y="108.38975"
       ry="1.2407349" /><path
       style="fill:url(#linearGradient4581);fill-opacity:1;fill-rule:evenodd;stroke-width:0.142302"
       d="m 24.460915,96.09081 0.688858,17.19054 c 0,0 -0.551086,2.86509 3.030977,3.00834 3.582064,0.14326 17.497005,0 17.497005,0 l 15.705974,-22.6342 -7.3019,-0.14326 -14.55838,21.61725 -5.005201,-0.55884 -7.02711,-12.69874 c 0,0 0.291646,-0.9119 0.92856,-1.46132 0.430624,-0.37147 0.994011,-0.4519 1.827628,-0.4519 1.071567,0 2.486666,2.61123 3.912183,4.94787 1.323669,2.16969 2.700858,4.07717 2.700858,4.07717 L 50.224222,96.37732 48.846504,94.51501 37.273683,105.2591 45.815527,94.08525 c 0,0 -20.114667,-0.42976 -20.941297,-0.14325 -0.826631,0.28651 -0.413315,2.14881 -0.413315,2.14881 z"
       id="path2910" /></g></svg>
