<?xml version="1.0" encoding="UTF-8" standalone="no"?>
<!-- Created with Inkscape (http://www.inkscape.org/) -->

<svg
   width="80.974289mm"
   height="22.072021mm"
   viewBox="0 0 80.974289 22.072021"
   version="1.1"
   id="svg5"
   xml:space="preserve"
   xmlns="http://www.w3.org/2000/svg"
   xmlns:svg="http://www.w3.org/2000/svg"><defs
     id="defs2" /><g
     id="layer1"
     transform="translate(-47.539739,-181.02343)"><rect
       style="fill:#f9f9f9;fill-rule:evenodd;stroke-width:0.264583"
       id="rect1822"
       width="80.974281"
       height="22.072021"
       x="47.539738"
       y="181.02344"
       ry="5.8771653" /><circle
       style="fill:#ffd42a;fill-rule:evenodd;stroke-width:0.257575"
       id="path919-0"
       cx="59.823238"
       cy="192.03922"
       r="8" /><path
       style="fill:#000000;fill-rule:evenodd;stroke-width:0.0552542"
       d="m 55.069354,188.711 v -0.92571 h 4.905841 4.905843 v 0.92571 0.9257 h -4.905843 -4.905841 z"
       id="path733-1" /><path
       style="fill:#000000;fill-rule:evenodd;stroke-width:0.0552542"
       d="m 55.069354,191.18862 v -0.89848 h 0.953135 0.953135 v 0.89848 0.89848 h -0.953135 -0.953135 z"
       id="path735-2" /><path
       style="fill:#000000;fill-rule:evenodd;stroke-width:0.0552542"
       d="m 57.704493,191.18862 v -0.89848 h 0.953135 0.953134 v 0.89848 0.89848 h -0.953134 -0.953135 z"
       id="path737-1" /><path
       style="fill:#000000;fill-rule:evenodd;stroke-width:0.0552542"
       d="m 60.33963,191.18862 v -0.89848 h 0.953135 0.953135 v 0.89848 0.89848 H 61.292765 60.33963 Z"
       id="path739-6" /><path
       style="fill:#000000;fill-rule:evenodd;stroke-width:0.0552542"
       d="m 62.974767,191.18862 v -0.89848 h 0.953137 0.953134 v 0.89848 0.89848 h -0.953134 -0.953137 z"
       id="path741-8" /><path
       style="fill:#000000;fill-rule:evenodd;stroke-width:0.0552542"
       d="m 62.974767,193.55735 v -0.92571 h 0.953137 0.953134 v 0.92571 0.9257 h -0.953134 -0.953137 z"
       id="path743-0" /><path
       style="fill:#000000;fill-rule:evenodd;stroke-width:0.0552542"
       d="m 60.33963,195.89884 v -0.9257 h 0.953135 0.953135 v 0.9257 0.92571 H 61.292765 60.33963 Z"
       id="path747-0" /><path
       style="fill:#000000;fill-rule:evenodd;stroke-width:0.0552542"
       d="m 60.33963,193.55735 v -0.92571 h 0.953135 0.953135 v 0.92571 0.9257 H 61.292765 60.33963 Z"
       id="path749-5" /><path
       style="fill:#000000;fill-rule:evenodd;stroke-width:0.0552542"
       d="m 57.704493,193.55735 v -0.92571 h 0.953135 0.953134 v 0.92571 0.9257 h -0.953134 -0.953135 z"
       id="path751-8" /><path
       style="fill:#000000;fill-rule:evenodd;stroke-width:0.0552542"
       d="m 57.704493,195.89884 v -0.9257 h 0.953135 0.953134 v 0.9257 0.92571 h -0.953134 -0.953135 z"
       id="path753-9" /><path
       style="fill:#000000;fill-rule:evenodd;stroke-width:0.0552542"
       d="m 55.069354,195.89884 v -0.9257 h 0.953135 0.953135 v 0.9257 0.92571 h -0.953135 -0.953135 z"
       id="path755-2" /><text
       xml:space="preserve"
       style="font-style:normal;font-variant:normal;font-weight:normal;font-stretch:normal;font-size:5.64444px;line-height:10px;font-family:'Franklin Gothic Medium';-inkscape-font-specification:'Franklin Gothic Medium, ';letter-spacing:1.00542px;fill:#f9f9f9;fill-rule:evenodd;stroke-width:0.264583"
       x="68.272141"
       y="191.25839"
       id="text1735"><tspan
         style="font-style:normal;font-variant:normal;font-weight:normal;font-stretch:normal;font-size:5.64444px;font-family:'Arial Rounded MT Bold';-inkscape-font-specification:'Arial Rounded MT Bold, ';fill:#000000;stroke-width:0.264583"
         x="68.272141"
         y="191.25839"
         id="tspan1737">PLANIFICADOR</tspan></text><text
       xml:space="preserve"
       style="font-style:normal;font-variant:normal;font-weight:normal;font-stretch:normal;font-size:5.64444px;line-height:10px;font-family:'Franklin Gothic Medium';-inkscape-font-specification:'Franklin Gothic Medium, ';letter-spacing:1.00542px;fill:#f9f9f9;fill-rule:evenodd;stroke-width:0.264583"
       x="68.597382"
       y="196.64941"
       id="text1735-5"><tspan
         style="font-style:normal;font-variant:normal;font-weight:normal;font-stretch:normal;font-size:5.64444px;font-family:'Arial Rounded MT Bold';-inkscape-font-specification:'Arial Rounded MT Bold, ';fill:#000000;stroke-width:0.264583"
         x="68.597382"
         y="196.64941"
         id="tspan1737-3">ACADÉMICO</tspan></text></g></svg>
